<mxfile host="app.diagrams.net" modified="2024-06-21T11:31:49.272Z" agent="Mozilla/5.0 (Macintosh; Intel Mac OS X 10_15_7) AppleWebKit/537.36 (KHTML, like Gecko) Chrome/125.0.0.0 Safari/537.36" version="24.6.0" etag="iMaedM_jwkJ-o7-lMdSV" type="github">
  <diagram name="Page-1" id="XyZuUb8R4gG7MQbfMDlZ">
    <mxGraphModel>
      <root>
        <mxCell id="0" />
        <mxCell id="1" parent="0" />
      </root>
    </mxGraphModel>
  </diagram>
</mxfile>
